<svg xmlns="http://www.w3.org/2000/svg" xml:space="preserve" id="_x32_" width="800" height="800" version="1.1" viewBox="0 0 512 512"><style>.st0{fill:#000}</style><path d="M99.281 399.469h320.094a16.648 16.648 0 0 0 14.719-8.875 16.655 16.655 0 0 0-1.063-17.141l-69.156-100.094c-6.313-9.125-16.781-14.516-27.906-14.297s-21.406 5.969-27.375 15.359l-19.719 30.984-54.828-79.359c-6.313-9.172-16.797-14.531-27.922-14.328s-21.406 5.969-27.375 15.359L85.281 373.984c-3.25 5.109-3.469 11.578-.531 16.875a16.547 16.547 0 0 0 14.531 8.61zM322.672 223.906c23.688 0 42.922-19.219 42.922-42.922 0-23.688-19.234-42.906-42.922-42.906-23.703 0-42.922 19.219-42.922 42.906 0 23.704 19.219 42.922 42.922 42.922z" class="st0"/><path d="M0 19.703v472.594h512V19.703H0zm461.375 421.969H50.625V70.328h410.75v371.344z" class="st0"/></svg>